<svg width="10" height="10" viewBox="0 0 10 10" fill="none" xmlns="http://www.w3.org/2000/svg">
<path d="M5 0L5.52264 0.0273905L6.03956 0.109262L6.54508 0.244718L7.03368 0.432273L7.5 0.669873L7.93893 0.954915L8.34565 1.28428L8.71572 1.65435L9.04508 2.06107L9.33013 2.5L9.56773 2.96632L9.75528 3.45492L9.89074 3.96044L9.97261 4.47736L10 5L9.97261 5.52264L9.89074 6.03956L9.75528 6.54508L9.56773 7.03368L9.33013 7.5L9.04508 7.93893L8.71572 8.34565L8.34565 8.71572L7.93893 9.04508L7.5 9.33013L7.03368 9.56773L6.54508 9.75528L6.03956 9.89074L5.52264 9.97261L5 10L4.47736 9.97261L3.96044 9.89074L3.45492 9.75528L2.96632 9.56773L2.5 9.33013L2.06107 9.04508L1.65435 8.71572L1.28428 8.34565L0.954915 7.93893L0.669873 7.5L0.432273 7.03368L0.244718 6.54508L0.109262 6.03956L0.0273905 5.52264L0 5L0.0273905 4.47736L0.109262 3.96044L0.244718 3.45492L0.432273 2.96632L0.669873 2.5L0.954915 2.06107L1.28428 1.65435L1.65435 1.28428L2.06107 0.954915L2.5 0.669873L2.96632 0.432273L3.45492 0.244718L3.96044 0.109262L4.47736 0.0273905L5 0Z" fill="#800000"/>
<path d="M2.5 3.08824L3.08824 2.5L7.5 6.91176L6.91176 7.5L2.5 3.08824Z" fill="#E9BA46"/>
<path d="M3.08824 7.5L2.5 6.91176L6.91176 2.5L7.5 3.08824L3.08824 7.5Z" fill="#E9BA46"/>
</svg>
