<svg width="150" height="150" viewBox="0 0 150 150" fill="none" xmlns="http://www.w3.org/2000/svg">
<path fill-rule="evenodd" clip-rule="evenodd" d="M143.47 12.8035H89.2018V0L0 13.7851V134.616L89.2018 150V131.023H143.47C145.113 131.106 146.723 130.534 147.947 129.433C149.17 128.331 149.909 126.789 150 125.144V18.6769C149.907 17.0327 149.168 15.492 147.945 14.3915C146.721 13.291 145.112 12.7201 143.47 12.8035ZM144.327 126.12H89.0196L88.9286 115.988H102.252V104.187H88.8268L88.7625 97.2144H102.252V85.4139H88.6607L88.5964 78.4409H102.252V66.6404H88.5536V59.6674H102.252V47.867H88.5536V40.894H102.252V29.0935H88.5536V18.3658H144.327V126.12Z" fill="#20744A"/>
<path d="M132.913 29.0771H109.754V40.8776H132.913V29.0771Z" fill="#20744A"/>
<path d="M132.913 47.8555H109.754V59.6559H132.913V47.8555Z" fill="#20744A"/>
<path d="M132.913 66.6348H109.754V78.4352H132.913V66.6348Z" fill="#20744A"/>
<path d="M132.913 85.4131H109.754V97.2136H132.913V85.4131Z" fill="#20744A"/>
<path d="M132.913 104.191H109.754V115.992H132.913V104.191Z" fill="#20744A"/>
<path fill-rule="evenodd" clip-rule="evenodd" d="M23.2884 46.4234L34.7849 45.7636L42.0117 65.6581L50.5509 44.943L62.0474 44.2832L48.0867 72.5292L62.0474 100.845L49.892 100.024L41.6849 78.4402L33.4724 99.2036L22.3027 98.2167L35.2777 73.2051L23.2884 46.4234Z" fill="white"/>
</svg>
