<svg width="19" height="10" viewBox="0 0 19 10" fill="none" xmlns="http://www.w3.org/2000/svg">
<path d="M9.5 10C7.36342 10 5.06394 9.19191 2.85017 7.66303C1.19526 6.52015 0.173821 5.38787 0.13114 5.34015C-0.0437132 5.14491 -0.0437132 4.85509 0.13114 4.65981C0.173821 4.61217 1.19522 3.47981 2.85017 2.33693C5.06399 0.808171 7.36347 0 9.5 0C11.6366 0 13.9361 0.808129 16.1498 2.33693C17.8047 3.47981 18.8262 4.61213 18.8689 4.65981C19.0437 4.85505 19.0437 5.14487 18.8689 5.34015C18.8262 5.38779 17.8048 6.52015 16.1498 7.66303C13.9361 9.19187 11.6366 10 9.5 10ZM1.27392 5.00004C1.68698 5.40737 2.46655 6.12363 3.49586 6.832C4.90697 7.80308 7.0941 8.96079 9.5 8.96079C11.9059 8.96079 14.0931 7.80308 15.5041 6.832C16.5333 6.12376 17.3129 5.40741 17.7261 5.00004C17.3131 4.59271 16.5334 3.87645 15.5041 3.16809C14.0931 2.19697 11.9059 1.03929 9.5 1.03929C7.0941 1.03929 4.90697 2.19697 3.49586 3.16809C2.46668 3.87633 1.68706 4.59259 1.27392 5.00004Z" fill="#800000"/>
<path d="M9.5 8.22158C7.66318 8.22158 6.16885 6.77638 6.16885 5.00004C6.16885 3.2237 7.66318 1.7785 9.5 1.7785C10.3078 1.7785 11.0871 2.06175 11.6942 2.57611C11.9174 2.76521 11.9398 3.09347 11.7443 3.30934C11.5488 3.5252 11.2093 3.54686 10.9861 3.3578C10.575 3.0095 10.0472 2.81771 9.49996 2.81771C8.25566 2.81771 7.24337 3.79672 7.24337 5.00004C7.24337 6.20336 8.25566 7.18238 9.49996 7.18238C10.7443 7.18238 11.7565 6.20336 11.7565 5.00004C11.7565 4.7131 11.9971 4.48044 12.2938 4.48044C12.5905 4.48044 12.8311 4.7131 12.8311 5.00004C12.8312 6.77638 11.3368 8.22158 9.5 8.22158Z" fill="#800000"/>
<path d="M9.5 6.03925C8.90749 6.03925 8.42544 5.57306 8.42544 5.00004C8.42544 4.42702 8.90749 3.96083 9.5 3.96083C10.0926 3.96083 10.5746 4.42702 10.5746 5.00004C10.5746 5.57306 10.0926 6.03925 9.5 6.03925Z" fill="#800000"/>
</svg>
