<svg width="150" height="150" viewBox="0 0 150 150" fill="none" xmlns="http://www.w3.org/2000/svg">
<path d="M150 34.5194V150H3.83691V0.000976562H109.73L128.487 16.0788L150 34.5194Z" fill="#B12A27"/>
<path d="M70.0995 10.0469H0V36.932H70.0995V10.0469Z" fill="#F2F2F2"/>
<path d="M25.1435 18.8602C24.8342 18.2197 24.422 17.6455 23.8553 17.1598C23.2886 16.674 22.5927 16.2765 21.794 16.0113C20.9696 15.7242 20.042 15.5918 19.0115 15.5918H11.3076V32.6411H15.1982V26.2143H19.0115C20.042 26.2143 20.9696 26.0818 21.794 25.7947C22.5927 25.5296 23.2883 25.1323 23.8553 24.6463C24.4223 24.1605 24.8345 23.6083 25.1435 22.9459C25.4268 22.3055 25.5817 21.6208 25.5817 20.9142C25.5813 20.1853 25.4268 19.5006 25.1435 18.8602ZM20.9436 22.5923C20.4282 23.0118 19.707 23.2327 18.831 23.2327H15.1982V18.5508H18.831C19.707 18.5508 20.4285 18.7717 20.9436 19.2132C21.4331 19.6327 21.6908 20.2069 21.6908 20.9136C21.6911 21.5985 21.4334 22.1728 20.9436 22.5923Z" fill="#B12A27"/>
<path d="M43.7453 22.195C43.7197 21.5988 43.6937 21.0688 43.6165 20.5828C43.5392 20.0968 43.4104 19.6553 43.2299 19.2357C43.0495 18.8382 42.8177 18.4406 42.5084 18.0873C41.8129 17.226 40.9625 16.5855 40.0093 16.188C39.03 15.7904 37.8707 15.5918 36.5053 15.5918H29.3428V32.6411H36.5053C37.8707 32.6411 39.03 32.4425 40.0093 32.0449C40.9625 31.6474 41.8129 31.0069 42.5084 30.1456C42.8177 29.7923 43.0495 29.3947 43.2299 28.9972C43.4104 28.5776 43.5392 28.1358 43.6165 27.6501C43.6937 27.1644 43.7194 26.6341 43.7453 26.0379C43.771 25.4637 43.771 24.8232 43.771 24.1166C43.771 23.41 43.771 22.7692 43.7453 22.195ZM39.8548 25.8393C39.8548 26.3473 39.8032 26.7448 39.7516 27.0981C39.6999 27.4295 39.6227 27.7386 39.5198 27.9595C39.4169 28.2023 39.2621 28.4232 39.082 28.6219C38.4377 29.3285 37.4588 29.6599 36.1706 29.6599H33.2077V18.5511H36.1706C37.4588 18.5511 38.4381 18.9044 39.082 19.611C39.2625 19.8097 39.4169 20.0086 39.5198 20.2515C39.6227 20.4943 39.7003 20.7814 39.7516 21.1348C39.8032 21.4661 39.8548 21.8856 39.8548 22.3714C39.8804 22.8574 39.8804 23.4536 39.8804 24.116C39.8807 24.779 39.8807 25.3532 39.8548 25.8393Z" fill="#B12A27"/>
<path d="M60.3644 18.5511V15.5918H47.25V32.6411H51.1406V25.7288H58.9989V22.7473H51.1406V18.5511H60.3644Z" fill="#B12A27"/>
<path d="M25.1435 18.8611C24.8342 18.2207 24.422 17.6465 23.8553 17.1607C23.2886 16.675 22.5927 16.2774 21.794 16.0123C20.9696 15.7252 20.042 15.5928 19.0115 15.5928H11.3076V32.6421H15.1982V26.2152H19.0115C20.042 26.2152 20.9696 26.0828 21.794 25.7957C22.5927 25.5306 23.2883 25.1333 23.8553 24.6473C24.4223 24.1615 24.8345 23.6093 25.1435 22.9469C25.4268 22.3064 25.5817 21.6218 25.5817 20.9151C25.5813 20.1862 25.4268 19.5016 25.1435 18.8611ZM20.9436 22.5933C20.4282 23.0128 19.707 23.2337 18.831 23.2337H15.1982V18.5518H18.831C19.707 18.5518 20.4285 18.7727 20.9436 19.2142C21.4331 19.6337 21.6908 20.2079 21.6908 20.9146C21.6911 21.5995 21.4334 22.1737 20.9436 22.5933Z" fill="#B12A27"/>
<path opacity="0.08" d="M150 34.5187V150H3.83691V122.924L72.1649 64.3553L76.2099 60.888L78.4514 58.9664L82.1875 55.7643L86.6191 51.9656L128.487 16.0781L150 34.5187Z" fill="#040000"/>
<path d="M150 34.5223H109.726V0L150 34.5223Z" fill="#771B1B"/>
<path d="M129.131 108.591C128.281 107.311 127.121 106.096 125.678 104.992C124.494 104.064 123.102 103.203 121.53 102.408C115.192 99.2057 106.149 97.6597 93.8588 97.6597H92.6222C91.9523 97.1297 91.2568 96.5997 90.5353 96.0475C85.8719 92.4478 82.1618 88.5387 79.2761 84.1881C84.9443 73.4769 87.6496 63.9363 87.3146 55.8091C87.263 54.4397 87.0313 53.1589 86.6191 51.9662C86.0008 50.0449 84.9703 48.3442 83.5273 46.9529C83.5017 46.931 83.5017 46.931 83.4757 46.9087C81.1826 44.7003 77.9879 43.4414 74.7413 43.4414C71.469 43.4414 68.4548 44.6561 66.2647 46.8867C64.1005 49.0951 62.9411 52.1209 62.8895 55.6764C62.8123 61.1092 63.3273 66.2549 64.4098 71.003C64.5127 71.3786 64.5902 71.7539 64.6931 72.1292C65.7752 76.4358 67.3727 80.5213 69.4337 84.3199C67.0118 88.5381 64.5643 92.182 62.8635 94.6556C61.5753 96.5329 60.1583 98.4984 58.6896 100.464C52.0682 101.48 46.4513 102.717 41.5562 104.263C34.9348 106.317 29.6272 108.966 25.8138 112.125C23.3403 114.156 21.6656 116.321 20.8412 118.574C19.9652 120.892 20.0168 123.211 20.9957 125.287C21.8973 127.208 23.5205 128.821 25.685 129.925C26.2004 130.19 26.7415 130.411 27.3081 130.61C28.9573 131.184 30.7605 131.493 32.6414 131.493C36.9957 131.493 41.4786 129.881 45.266 126.988C52.3256 121.577 59.6169 112.876 63.9197 107.376C67.4493 106.913 71.2882 106.515 75.617 106.117C80.7185 105.676 85.2273 105.411 89.324 105.278C90.5866 106.25 91.7975 107.177 92.9568 108.061C99.3982 112.985 104.293 116.541 108.725 119.037C108.725 119.059 108.75 119.059 108.776 119.059C110.528 120.052 112.203 120.87 113.878 121.532C115.759 122.283 117.665 122.681 119.623 122.681C122.097 122.681 124.416 122.04 126.348 120.87C128.306 119.655 129.723 117.911 130.367 115.945C131.115 113.583 130.677 110.955 129.131 108.591ZM72.1649 64.3559C71.8043 61.6172 71.6495 58.7684 71.7011 55.7648C71.7527 52.916 72.9637 50.9944 74.7413 50.9944C76.0811 50.9944 77.4982 52.0324 78.1421 54.0199C78.3226 54.6161 78.4514 55.3008 78.477 56.0736C78.5287 57.0012 78.5027 57.9729 78.4514 58.9667C78.2969 61.7716 77.7299 64.7528 76.751 67.9553C76.1584 70.0093 75.3856 72.1515 74.4323 74.3818C73.3502 71.2462 72.5771 67.9113 72.1649 64.3559ZM29.1893 122.483C28.7512 121.555 29.2409 119.766 31.9205 117.558C36.0172 114.201 42.4325 111.551 51.373 109.541C49.6726 111.529 47.9979 113.34 46.3747 114.996C43.9012 117.558 41.5309 119.722 39.3923 121.356C37.5631 122.769 35.5534 123.653 33.6469 123.874C33.312 123.918 32.977 123.94 32.6421 123.94C30.967 123.94 29.6015 123.366 29.1893 122.483ZM70.3613 99.0067L70.5418 98.7639L70.2584 98.8081C70.31 98.6977 70.3873 98.5872 70.4645 98.499C71.5466 96.9311 72.9121 94.9213 74.3807 92.6024L74.5096 92.8453L74.8445 92.2491C75.9266 93.5742 77.1119 94.8773 78.3485 96.1359C78.9412 96.7321 79.5595 97.3063 80.1778 97.8806L79.7656 97.9025L80.1262 98.1897C79.0697 98.2559 77.962 98.3443 76.8539 98.4325C76.1584 98.4987 75.4369 98.543 74.7153 98.6092C73.2214 98.7416 71.7527 98.8743 70.3613 99.0067ZM113.723 112.787C110.657 111.109 107.231 108.746 103.005 105.588C109.009 106.118 113.723 107.244 117.073 108.923C118.542 109.651 119.649 110.402 120.397 111.131C121.633 112.257 122.071 113.273 121.839 113.958C121.633 114.642 120.731 115.106 119.623 115.106C118.979 115.106 118.31 114.974 117.614 114.687C116.428 114.201 115.192 113.604 113.878 112.876C113.826 112.876 113.775 112.832 113.723 112.787Z" fill="#F2F2F2"/>
</svg>
