<svg width="150" height="150" viewBox="0 0 150 150" fill="none" xmlns="http://www.w3.org/2000/svg">
<path d="M88.5857 0V15.6974C106.8 15.8016 127.998 15.5055 146.196 15.7851C149.636 15.7851 149.786 18.8994 149.829 21.6189C150.118 54.198 149.759 87.7147 150 120.31C149.936 121.593 149.968 126.341 149.93 127.69C149.812 132.203 147.605 132.4 143.196 132.537C142.489 132.537 140.411 132.57 139.725 132.603C122.684 132.515 105.643 132.554 88.5857 132.554V150L0 136.046C0 95.3487 0 54.6641 0 13.9923L88.5857 0Z" fill="#D33922"/>
<path d="M88.5864 20.9297H144.836V127.297H88.5864V113.382H129.483V106.391H88.5864V97.6732H129.483V90.699H88.6024C88.6024 87.2777 88.6025 83.8619 88.5703 80.4461C91.9163 81.6815 95.4892 82.138 99.0292 81.7824C102.569 81.4267 105.987 80.2678 109.035 78.39C112.141 76.3011 114.714 73.4825 116.539 70.1691C118.365 66.8558 119.39 63.1438 119.529 59.3426C112.029 59.2878 104.567 59.3097 97.1042 59.3097C97.1042 51.7214 97.19 44.1386 96.9489 36.5668C94.1525 37.1151 91.3614 37.7182 88.581 38.3268V20.9352" fill="white"/>
<path d="M100.531 32.9131C106.342 33.2857 111.822 35.8096 115.948 40.0136C120.074 44.2176 122.565 49.8146 122.956 55.7601C115.456 55.8479 107.993 55.815 100.515 55.815C100.515 48.1774 100.515 40.5343 100.515 32.9131" fill="#D33922"/>
<path d="M27.3218 46.0817C36.5736 46.5367 47.7861 42.3314 55.4575 49.4317C62.8022 58.5552 60.8575 75.3327 49.9718 80.7882C46.0138 82.3923 41.7229 82.9431 37.5004 82.3891C37.5004 89.2098 37.4683 96.0305 37.5004 102.846C34.1254 102.55 30.7343 102.254 27.3593 101.974C27.204 83.3322 27.1718 64.6905 27.3593 46.0488" fill="white"/>
<path d="M37.462 55.513C40.8209 55.354 44.962 54.729 47.2442 57.9529C48.1566 59.7084 48.652 61.6593 48.6902 63.6474C48.7283 65.6354 48.3082 67.6047 47.4638 69.3956C45.5192 72.9869 41.1263 72.6414 37.7352 73.0581C37.3763 67.2134 37.4138 61.3742 37.462 55.513Z" fill="#D33922"/>
</svg>
