<svg width="35" height="23" viewBox="0 0 35 23" fill="none" xmlns="http://www.w3.org/2000/svg">
<path d="M28.831 9.79381C28.831 9.79381 29.48 1.05081 21.47 0.0538078C14.605 -0.647192 12.515 5.73281 12.515 5.73281C12.515 5.73281 10.448 3.74481 7.643 5.36881C5.132 6.91881 5.576 9.75681 5.576 9.75681C5.576 9.75681 0 10.8408 0 16.5248C0.124 22.2018 6.054 22.2588 6.054 22.2588H15.405V16.2588H12.405L17.405 11.2588L22.405 16.2588H19.405V22.2588H27.872C27.872 22.2588 33.392 22.2648 34.167 16.8638C34.536 10.9578 28.831 9.79381 28.831 9.79381Z" fill="#E9BA46"/>
</svg>
