<svg width="150" height="150" viewBox="0 0 150 150" fill="none" xmlns="http://www.w3.org/2000/svg">
<path d="M88.5825 0.00548206V13.9583C106.796 14.0625 126.724 13.7664 144.943 14.0625C145.586 13.9481 146.245 13.9887 146.87 14.181C147.495 14.3734 148.067 14.7121 148.541 15.1703C149.015 15.6286 149.379 16.1937 149.602 16.8208C149.826 17.4479 149.903 18.1198 149.829 18.7829C150.118 53.136 149.759 89.4518 150 123.81C149.893 126.003 150.048 129.94 149.716 132.127C149.293 134.918 148.077 135.455 145.339 135.833C143.807 136.047 141.247 136.02 139.741 136.091C124.785 136.014 109.839 136.031 94.8823 136.036H88.5879V150L0 136.025C0 95.3344 0 54.6546 0 13.9857L88.5825 0.00548206Z" fill="#283C82"/>
<path d="M88.583 19.1885H144.831V130.8H88.583V116.847H132.885V109.874H88.583V101.157H132.885V94.1775H88.583V85.4604H132.885V78.4812H88.583V69.7641H132.885V62.785H88.583V54.0679H132.885V47.0887H88.583V38.3716H132.885V31.3924H88.583V19.1885Z" fill="white"/>
<path d="M35.2109 50.0057C38.4251 49.8139 41.6875 49.6768 44.9231 49.5014C47.189 61.2722 49.5086 73.0266 51.9621 84.7481C53.8852 72.6428 56.0173 60.5759 58.0797 48.4926C61.4868 48.372 64.8938 48.1801 68.2847 47.9443C64.4331 64.8413 61.0582 81.8807 56.853 98.679C54.0084 100.198 49.7497 98.6077 46.3748 98.8544C44.1088 87.3084 41.4678 75.8281 39.4375 64.2382C37.4448 75.5375 34.852 86.6834 32.5699 97.8785C29.2986 97.7031 26.0148 97.5003 22.7185 97.27C19.89 81.9191 16.5687 66.6834 13.9277 51.2996C16.8419 51.1625 19.7722 51.0364 22.6864 50.9323C24.4434 62.0397 26.4362 73.0978 27.9683 84.2217C30.3682 72.8182 32.8271 61.4092 35.2109 50.0057Z" fill="white"/>
</svg>
